PathFileType	4	(X/Y/Z)	C:/Users/opensim2020/Desktop/walking_exp_matlab/subject06_walking21_straight_02.trc	
DataRate	CameraRate	NumFrames	NumMarkers	Units	OrigDataRate	OrigDataStartFrame	OrigNumFrames	
100.00	100.00	6	44	mm	100.00	1304	172	
Frame#	Time	LFHD			RFHD			LBHD			RBHD			C7			T10			CLAV			STRN			RBAK			LSHO			LUPA			LELB			LFRM			LWRA			LWRB			LFIN			RSHO			RUPA			RELB			RFRM			RWRA			RWRB			RFIN			LASI			RASI			LPSI			RPSI			LTHI			LKNE			LTIB			LANK			LHEE			LTOE			RTHI			RKNE			RTIB			RANK			RHEE			RTOE			*39			*40			*41			*42			*43			
		X1	Y1	Z1	X2	Y2	Z2	X3	Y3	Z3	X4	Y4	Z4	X5	Y5	Z5	X6	Y6	Z6	X7	Y7	Z7	X8	Y8	Z8	X9	Y9	Z9	X10	Y10	Z10	X11	Y11	Z11	X12	Y12	Z12	X13	Y13	Z13	X14	Y14	Z14	X15	Y15	Z15	X16	Y16	Z16	X17	Y17	Z17	X18	Y18	Z18	X19	Y19	Z19	X20	Y20	Z20	X21	Y21	Z21	X22	Y22	Z22	X23	Y23	Z23	X24	Y24	Z24	X25	Y25	Z25	X26	Y26	Z26	X27	Y27	Z27	X28	Y28	Z28	X29	Y29	Z29	X30	Y30	Z30	X31	Y31	Z31	X32	Y32	Z32	X33	Y33	Z33	X34	Y34	Z34	X35	Y35	Z35	X36	Y36	Z36	X37	Y37	Z37	X38	Y38	Z38	X39	Y39	Z39	X40	Y40	Z40	X41	Y41	Z41	X42	Y42	Z42	X43	Y43	Z43	X44	Y44	Z44	

44	0.430	1518.37244	923.44769	1650.97070	1387.42603	930.71326	1638.67725	1527.17090	1053.78711	1590.60327	1398.76770	1059.55701	1583.77808	1465.00269	1051.39807	1432.42883	1445.02051	1072.16394	1102.10474	1461.96594	937.19812	1360.07239	1460.91418	889.24640	1187.23401	1379.33618	1118.48376	1260.36096	1624.98767	999.91547	1382.89868	1685.61389	1047.28528	1185.73718	1687.63037	1086.23425	1079.20032	1708.82202	1111.22876	931.93542	1672.72437	1083.81641	801.84137	1702.30908	1147.57544	819.12085	1702.20593	1138.78528	727.25983	1301.41479	987.62744	1394.22437	1207.55847	1014.09601	1197.89453	1190.28235	988.78735	1079.99768	1175.18030	928.50751	978.33789	1213.79004	814.32404	885.52130	1172.98547	860.75916	859.59167	1172.96167	791.82935	812.72223	1546.08618	881.83093	959.17755	1330.50159	898.12726	950.20227	1531.43213	1042.79248	973.95630	1364.43494	1046.69458	970.28162	1618.53882	873.43500	651.75104	1591.79492	823.92847	498.42789	1592.83740	811.41882	240.48421	1553.55725	791.58606	69.40171	1509.47473	832.30389	53.68969	1540.05493	646.89197	47.36148	1290.86194	986.49298	608.50775	1310.18335	1000.63165	481.81702	1336.21680	1200.26270	300.23282	1390.28516	1333.94092	178.47363	1440.02075	1370.36121	190.48741	1383.00610	1263.13696	43.17639	1465.13550	1028.77173	1684.14026												 
45	0.440	1519.69836	910.26221	1652.80139	1388.78149	917.77625	1640.62305	1528.79810	1040.65601	1592.56506	1400.35022	1046.66687	1585.82605	1466.62695	1038.27026	1433.96973	1446.47290	1058.60754	1104.35242	1463.33740	923.66553	1362.24646	1462.19263	875.23895	1189.61829	1380.78589	1104.98047	1262.45520	1626.28247	985.87573	1385.63721	1687.44421	1031.76440	1188.29810	1689.64893	1069.57703	1081.42810	1711.21436	1093.10583	934.12567	1674.65991	1064.38989	804.10309	1704.37231	1127.88586	820.44012	1704.14563	1118.51599	728.81018	1303.17480	974.75403	1396.61230	1209.61804	1002.29553	1200.47034	1193.16345	978.13013	1082.12000	1177.36084	920.26532	978.79498	1214.79346	808.35474	882.57410	1174.30042	856.03693	857.96313	1173.72522	788.46893	808.92010	1548.16980	868.33240	961.80896	1332.80383	884.62524	952.32068	1532.37561	1029.22961	976.44305	1365.70728	1032.73718	971.93854	1619.68201	861.76276	653.30280	1592.64307	813.93024	499.32312	1593.49548	806.24707	240.84406	1553.56519	790.26666	69.44402	1509.96484	831.57806	54.06995	1538.80334	645.96216	45.95709	1290.74829	966.32324	608.80518	1308.79944	977.36774	481.84650	1336.43616	1179.42407	306.50653	1391.13904	1316.95776	189.83125	1441.11597	1351.15918	204.60153	1383.30212	1257.15356	47.26757	1466.74695	1015.65277	1686.14111												 
46	0.450	1521.05127	897.17743	1654.62695	1390.10632	904.88055	1642.64075	1530.31299	1027.59839	1594.31763	1401.86414	1033.80225	1587.74158	1468.11621	1025.00732	1435.53271	1448.00769	1045.10791	1106.47998	1464.56982	910.14435	1364.30273	1463.47925	861.37305	1191.75415	1382.33142	1091.58997	1264.39905	1627.46912	971.84326	1388.28833	1689.24475	1016.13483	1190.75208	1691.90088	1052.86011	1083.70398	1713.45776	1074.42725	935.97791	1676.74353	1044.20264	806.26300	1707.02869	1107.97180	822.09387	1706.18884	1097.37549	730.20087	1304.83545	961.92480	1398.75403	1211.35266	990.49316	1202.89014	1195.86511	967.73669	1084.04297	1179.38135	912.41211	979.08850	1215.79541	802.88763	879.29877	1175.54517	851.96686	856.15814	1174.44824	785.54852	805.02460	1550.00598	855.30627	963.88055	1334.72656	870.60791	954.35596	1533.43811	1015.63605	978.59656	1366.91272	1019.30951	973.43988	1620.83838	851.09113	654.35052	1593.43933	804.97522	499.80667	1593.72925	801.55414	240.96608	1553.50183	789.63354	69.51154	1510.00537	831.30981	54.29791	1538.29004	645.58636	44.91048	1290.65027	946.32391	609.22607	1307.84802	953.60382	481.87537	1336.37952	1157.01514	312.32205	1391.41345	1297.74683	200.52719	1441.82324	1329.79602	217.78735	1382.93542	1250.60229	51.88302	1468.35413	1002.69806	1687.97388												 
47	0.460	1522.39514	884.14783	1656.43250	1391.44617	892.00043	1644.64282	1531.65540	1014.40076	1595.88257	1403.23853	1020.79480	1589.54761	1469.57361	1011.76385	1437.24902	1449.67578	1031.73767	1108.46692	1465.69519	896.70319	1366.21301	1464.75073	847.64502	1193.70068	1383.94165	1078.52368	1266.38916	1628.67578	957.66058	1390.75586	1690.99500	1000.31555	1193.05518	1694.10645	1035.92395	1085.58252	1715.48352	1055.00171	937.27643	1678.92908	1023.37231	808.27808	1709.44653	1087.21741	823.16333	1708.31909	1075.41345	731.35553	1306.29541	949.09161	1400.57825	1213.26672	978.23822	1204.88879	1198.16687	957.72699	1085.62378	1181.30872	904.81818	979.05084	1216.82190	796.76062	876.19879	1176.89807	847.41235	854.46198	1175.32837	783.00922	800.98340	1551.38538	842.51239	965.41901	1336.57324	858.60107	956.18231	1534.73206	1003.06995	980.69983	1368.19287	1006.12207	974.81824	1622.01306	841.18787	655.07629	1594.32690	797.00983	499.85190	1593.71228	798.13403	240.95667	1553.26892	789.16803	69.56430	1509.84326	831.13141	54.53704	1538.13855	645.09241	44.16235	1290.73828	926.56659	609.66760	1307.11755	930.01270	482.24167	1335.93921	1133.32861	317.45505	1391.11890	1276.82861	209.80833	1442.09583	1306.47876	229.50842	1384.42761	1243.56372	55.73845	1469.87183	989.83478	1689.70459												 
48	0.470	1523.64063	871.20465	1658.24658	1392.68701	879.11639	1646.66382	1532.93689	1001.31848	1597.41870	1404.54114	1007.82739	1591.29541	1470.97156	998.40112	1439.10559	1451.28406	1018.46417	1110.34583	1466.66833	883.27557	1368.04749	1465.94739	834.19476	1195.40820	1385.63403	1065.54614	1268.20898	1629.84680	943.49670	1393.04639	1692.94067	984.52002	1195.04175	1696.27844	1018.75934	1087.19043	1717.84607	1035.43860	938.53333	1681.23010	1002.07361	810.05200	1711.90137	1065.78552	823.83740	1710.85938	1052.60620	732.37646	1307.59668	936.31274	1402.14197	1214.78137	966.43976	1206.46814	1200.13367	947.75433	1086.70044	1183.09998	897.37976	978.68597	1217.71838	792.34943	872.49231	1178.10339	843.42114	852.45471	1176.47571	780.68396	796.84375	1553.03992	829.77338	966.68896	1337.63269	844.75378	957.89667	1535.99854	990.09650	982.53357	1369.41064	993.34784	976.08789	1623.13354	831.98248	655.46442	1595.38232	790.21454	499.59338	1593.73401	795.70789	240.86990	1552.94275	788.73627	69.35521	1509.73413	831.05933	54.73684	1537.99890	644.84583	43.55746	1290.95422	907.21515	610.21155	1306.65344	906.38440	482.97107	1334.47986	1108.70276	321.74454	1390.21753	1254.59253	217.49268	1441.44690	1281.82727	239.79411	1386.31396	1232.54285	60.52145	1471.30359	977.01166	1691.36475												 
49	0.480	1524.73901	858.19659	1660.07727	1393.79419	866.31805	1648.69019	1534.11951	988.21564	1598.91797	1405.84229	995.00696	1592.97180	1472.31116	985.04352	1441.04041	1452.88428	1005.43799	1112.11938	1467.66187	870.01196	1369.82324	1467.15320	820.94141	1196.97852	1387.49243	1052.78735	1269.99475	1631.08704	929.33368	1395.14783	1694.85425	968.57294	1196.79041	1698.51855	1001.39520	1088.50049	1720.21387	1015.45776	939.44434	1683.53418	979.81592	811.70575	1713.69556	1043.42688	823.72101	1712.98987	1028.84375	732.65833	1308.70337	923.61279	1403.42761	1216.26709	955.13635	1207.57312	1201.79138	937.82733	1087.40466	1184.71265	890.13940	978.03455	1218.67590	787.73224	868.71173	1179.35156	839.50580	850.39746	1177.37061	778.75586	792.62903	1554.51477	817.13257	967.79089	1338.55042	832.26715	959.35828	1537.16382	977.42664	984.24091	1370.51282	980.81647	977.22589	1624.23096	823.57556	655.91199	1596.50464	784.30731	499.26315	1594.15491	793.81720	240.96933	1552.79797	788.55487	69.36978	1509.64685	831.06628	54.88057	1537.75061	644.61047	43.21966	1291.03967	888.43024	611.08124	1306.49341	882.53046	484.17523	1333.64661	1082.26221	324.16647	1388.54395	1231.07385	223.60115	1438.86499	1257.37769	248.24724	1390.16382	1217.79980	64.69584	1472.64868	964.21393	1693.07874												 
